<?xml version="1.0" encoding="iso-8859-1"?>
<!-- Generator: Adobe Illustrator 19.0.0, SVG Export Plug-In . SVG Version: 6.00 Build 0)  -->
<svg version="1.1" id="Layer_1" xmlns="http://www.w3.org/2000/svg" xmlns:xlink="http://www.w3.org/1999/xlink" x="0px" y="0px"
	 viewBox="0 0 512 512" style="enable-background:new 0 0 512 512;" xml:space="preserve">
<circle style="fill:#E16B5A;" cx="256" cy="256" r="256"/>
<path style="fill:#CC6152;" d="M504.772,316.376c-0.048-0.084-0.072-0.2-0.116-0.28c-0.196-0.752-0.46-1.444-0.828-2.06
	c-0.196-0.748-0.46-1.428-0.828-2.044c-0.196-0.752-0.46-1.444-0.828-2.056c-0.196-0.748-0.46-1.428-0.824-2.04
	c-0.196-0.752-0.464-1.444-0.832-2.064c-0.196-0.752-0.46-1.432-0.828-2.044c-0.192-0.752-0.46-1.44-0.828-2.056
	c-0.196-0.752-0.46-1.44-0.828-2.056c-0.196-0.748-0.46-1.432-0.828-2.044c-0.196-0.752-0.46-1.444-0.828-2.056
	c-0.196-0.748-0.46-1.428-0.82-2.04c-0.196-0.752-0.46-1.444-0.836-2.064c-0.192-0.752-0.46-1.432-0.82-2.044
	c-0.2-0.752-0.468-1.444-0.836-2.06c-0.192-0.748-0.46-1.432-0.82-2.044c-0.2-0.752-0.46-1.44-0.828-2.052
	c-0.196-0.752-0.468-1.444-0.836-2.06c-0.188-0.744-0.452-1.424-0.82-2.036c-0.196-0.752-0.456-1.444-0.828-2.064
	c-0.196-0.752-0.46-1.432-0.828-2.044c-0.196-0.752-0.46-1.444-0.828-2.06c-0.196-0.748-0.46-1.432-0.828-2.044
	c-0.196-0.752-0.46-1.444-0.828-2.056c-0.196-0.752-0.46-1.432-0.824-2.048c-0.2-0.748-0.46-1.428-0.828-2.044
	c-0.2-0.752-0.46-1.448-0.828-2.064c-0.2-0.752-0.46-1.432-0.828-2.048c-0.2-0.752-0.46-1.44-0.828-2.056
	c-0.2-0.748-0.46-1.432-0.828-2.044c-0.2-0.752-0.46-1.444-0.828-2.056c-0.196-0.752-0.46-1.432-0.828-2.048
	c-0.196-0.752-0.46-1.44-0.828-2.056c-0.196-0.748-0.46-1.428-0.824-2.036c-0.192-0.752-0.46-1.444-0.832-2.064
	c-0.196-0.752-0.456-1.44-0.828-2.056c-0.196-0.748-0.456-1.436-0.828-2.044c-0.196-0.752-0.456-1.444-0.828-2.06
	c-0.196-0.748-0.456-1.428-0.828-2.044c-0.196-0.752-0.456-1.44-0.828-2.056c-0.196-0.748-0.456-1.428-0.816-2.036
	c-0.2-0.752-0.468-1.448-0.836-2.068c-0.196-0.748-0.46-1.428-0.828-2.044c-0.196-0.752-0.46-1.44-0.828-2.056
	c-0.196-0.752-0.46-1.44-0.828-2.056c-0.196-0.748-0.46-1.428-0.828-2.044c-0.196-0.752-0.46-1.44-0.828-2.056
	c-0.196-0.748-0.46-1.428-0.82-2.036c-0.196-0.752-0.46-1.448-0.836-2.068c-0.196-0.748-0.456-1.432-0.82-2.044
	c-0.196-0.752-0.464-1.444-0.836-2.056c-0.196-0.752-0.456-1.436-0.82-2.048c-0.196-0.752-0.464-1.444-0.836-2.056
	c-0.196-0.752-0.456-1.428-0.82-2.048c-0.196-0.752-0.464-1.436-0.828-2.048c-0.196-0.752-0.46-1.436-0.828-2.052
	c-0.196-0.752-0.46-1.44-0.828-2.052c-0.196-0.752-0.46-1.444-0.828-2.056c-0.196-0.752-0.46-1.436-0.828-2.048
	c-0.196-0.752-0.46-1.444-0.828-2.056c-0.196-0.752-0.46-1.428-0.828-2.048c-0.196-0.752-0.46-1.44-0.828-2.056
	c-0.196-0.744-0.46-1.428-0.824-2.036c-0.192-0.752-0.464-1.44-0.832-2.06c-0.196-0.752-0.46-1.444-0.828-2.056
	c-0.196-0.752-0.46-1.436-0.828-2.048c-0.196-0.752-0.46-1.444-0.828-2.056c-0.196-0.752-0.46-1.432-0.828-2.048
	c-0.196-0.752-0.46-1.44-0.828-2.056c-0.196-0.744-0.46-1.428-0.82-2.036c-0.196-0.752-0.46-1.448-0.836-2.068
	c-0.192-0.748-0.46-1.428-0.82-2.04c-0.2-0.752-0.46-1.444-0.828-2.056c-0.2-0.752-0.468-1.444-0.836-2.056
	c-0.192-0.752-0.46-1.432-0.82-2.048c-0.2-0.752-0.468-1.44-0.836-2.056c-0.192-0.744-0.452-1.428-0.82-2.036
	c-0.196-0.752-0.456-1.448-0.828-2.068c-0.196-0.748-0.46-1.428-0.828-2.044c-0.196-0.752-0.46-1.44-0.828-2.056
	c-0.196-0.748-0.46-1.436-0.828-2.044c-0.196-0.752-0.46-1.44-0.828-2.056c-0.196-0.752-0.46-1.444-0.828-2.056
	c-0.196-0.744-0.456-1.428-0.828-2.036c-0.196-0.752-0.456-1.448-0.824-2.068c-0.2-0.748-0.46-1.428-0.828-2.044
	c-0.2-0.752-0.46-1.44-0.828-2.056c-0.2-0.748-0.46-1.436-0.828-2.044c-0.2-0.752-0.46-1.444-0.828-2.06
	c-0.2-0.748-0.46-1.432-0.828-2.044c-0.2-0.752-0.46-1.444-0.828-2.056c-0.196-0.748-0.46-1.428-0.824-2.04
	c-0.192-0.752-0.464-1.444-0.832-2.06c-0.196-0.752-0.46-1.44-0.828-2.06C426.756,122.04,423.92,120,420,120H92c-4.78,0-8,2.996-8,8
	v176v32c0,1.62,0.416,3.044,1.124,4.244c0.184,0.748,0.46,1.42,0.82,2.048c0.188,0.74,0.46,1.416,0.828,2.044
	c0.188,0.748,0.46,1.436,0.828,2.064c0.188,0.748,0.46,1.42,0.828,2.048c0.188,0.748,0.46,1.428,0.828,2.056
	c0.188,0.74,0.46,1.416,0.828,2.044c0.188,0.752,0.46,1.428,0.828,2.06c0.188,0.744,0.46,1.416,0.828,2.044
	c0.188,0.748,0.46,1.428,0.828,2.056c0.188,0.744,0.456,1.416,0.82,2.036c0.188,0.752,0.464,1.436,0.836,2.068
	c0.188,0.744,0.46,1.416,0.828,2.044c0.188,0.744,0.456,1.428,0.828,2.052c0.188,0.752,0.456,1.428,0.824,2.06
	c0.192,0.744,0.464,1.416,0.828,2.044c0.192,0.748,0.46,1.428,0.828,2.056c0.192,0.744,0.46,1.416,0.824,2.036
	c0.184,0.752,0.464,1.436,0.832,2.068c0.188,0.744,0.46,1.416,0.828,2.044c0.184,0.752,0.46,1.432,0.828,2.056
	c0.188,0.744,0.46,1.42,0.828,2.048c0.184,0.744,0.46,1.424,0.828,2.052c0.184,0.748,0.46,1.432,0.828,2.056
	c0.188,0.744,0.456,1.416,0.82,2.04c0.188,0.748,0.464,1.432,0.836,2.064c0.184,0.744,0.456,1.416,0.824,2.044
	c0.184,0.752,0.46,1.432,0.832,2.06c0.184,0.74,0.456,1.416,0.824,2.044c0.184,0.748,0.46,1.424,0.832,2.056
	c0.184,0.748,0.456,1.42,0.824,2.044c0.184,0.744,0.46,1.42,0.82,2.048c0.192,0.748,0.468,1.432,0.836,2.064
	c0.184,0.744,0.46,1.42,0.82,2.044c0.188,0.752,0.468,1.432,0.836,2.06c0.18,0.74,0.46,1.416,0.82,2.044
	c0.188,0.748,0.468,1.424,0.836,2.056c0.18,0.748,0.46,1.42,0.82,2.044c0.188,0.748,0.46,1.424,0.828,2.052
	c0.188,0.744,0.46,1.424,0.828,2.052c0.188,0.744,0.46,1.428,0.828,2.052c0.188,0.752,0.46,1.432,0.828,2.06
	c0.188,0.74,0.464,1.416,0.828,2.044c0.188,0.748,0.46,1.424,0.828,2.056c0.188,0.748,0.464,1.42,0.828,2.044
	c0.188,0.752,0.46,1.432,0.828,2.06c0.188,0.74,0.46,1.416,0.824,2.036c0.184,0.752,0.464,1.436,0.832,2.064
	c0.188,0.748,0.46,1.42,0.828,2.048c0.184,0.748,0.46,1.428,0.828,2.056c0.188,0.74,0.46,1.42,0.828,2.044
	c0.184,0.748,0.46,1.428,0.828,2.056c0.184,0.748,0.46,1.428,0.828,2.056c0.188,0.74,0.46,1.416,0.82,2.036
	c0.188,0.752,0.468,1.436,0.836,2.068c0.184,0.744,0.46,1.416,0.824,2.044c0.184,0.748,0.464,1.428,0.832,2.056
	c0.184,0.744,0.46,1.42,0.824,2.044c0.184,0.752,0.464,1.428,0.832,2.06c0.184,0.744,0.46,1.416,0.824,2.044
	c0.184,0.74,0.456,1.416,0.824,2.044c0.188,0.752,0.46,1.436,0.828,2.068c0.188,0.744,0.46,1.416,0.828,2.044
	c0.188,0.748,0.46,1.428,0.828,2.056c0.188,0.744,0.46,1.42,0.828,2.044c0.188,0.752,0.46,1.428,0.828,2.06
	c0.188,0.744,0.46,1.416,0.828,2.044c0.188,0.752,0.46,1.432,0.828,2.056c0.188,0.744,0.456,1.416,0.82,2.04
	c0.188,0.748,0.464,1.428,0.836,2.06c0.188,0.748,0.456,1.432,0.828,2.056c0.188,0.744,0.46,1.42,0.828,2.048
	c0.056,0.216,0.164,0.384,0.236,0.584C177.928,502.752,215.884,512,256,512C376.58,512,477.624,428.612,504.772,316.376z"/>
<rect x="212" y="344" style="fill:#E6E6E6;" width="88" height="36"/>
<path style="fill:#1E2C33;" d="M84,304V128c0-5.004,3.22-8,8-8h328c4.78,0,8,2.996,8,8v176H84z"/>
<path style="fill:#F5F5F5;" d="M84,304v32c0,4.78,3.408,8,8.188,8H420c4.78,0,8-3.22,8-8v-32H84z"/>
<rect x="100" y="136" style="fill:#586874;" width="312" height="152"/>
<path style="fill:#F5F5F5;" d="M328,388c0-4.416-3.584-8-8-8H192c-4.416,0-8,3.584-8,8l0,0c0,4.416,3.584,8,8,8h128
	C324.416,396,328,392.416,328,388L328,388z"/>
<circle style="fill:#1E2C33;" cx="256.2" cy="320" r="8"/>
<path style="fill:#F5F5F5;" d="M315.304,223.04c0.132-1.5,0.212-3.02,0.212-4.56c0-28.028-22.492-50.752-50.236-50.752
	c-24.212,0-44.424,17.32-49.172,40.368c-0.156,0-0.296-0.024-0.444-0.024c-17.656,0-31.964,14.312-31.964,31.964
	S198.008,272,215.664,272h86.152c14.628,0,26.484-11.784,26.484-26.328C328.3,236.032,323.08,227.628,315.304,223.04z"/>
<g>
</g>
<g>
</g>
<g>
</g>
<g>
</g>
<g>
</g>
<g>
</g>
<g>
</g>
<g>
</g>
<g>
</g>
<g>
</g>
<g>
</g>
<g>
</g>
<g>
</g>
<g>
</g>
<g>
</g>
</svg>
