<?xml version="1.0" encoding="iso-8859-1"?>
<!-- Generator: Adobe Illustrator 19.0.0, SVG Export Plug-In . SVG Version: 6.00 Build 0)  -->
<svg version="1.1" id="Layer_1" xmlns="http://www.w3.org/2000/svg" xmlns:xlink="http://www.w3.org/1999/xlink" x="0px" y="0px"
	 viewBox="0 0 512 512" style="enable-background:new 0 0 512 512;" xml:space="preserve">
<path style="fill:#507C5C;" d="M256,420.13c-0.371,0-0.728-0.005-1.088-0.017c-47.695-0.299-92.811-21.292-123.815-57.624
	C105.801,332.848,91.87,295.03,91.87,256.002c0-33.515,10.037-65.754,29.025-93.226c18.541-26.827,44.302-47.349,74.499-59.35
	c19.301-7.667,39.691-11.554,60.606-11.554c32.395,0,63.744,9.437,90.656,27.292c46.008,30.533,73.474,81.687,73.474,136.839
	c0,6.385-0.378,12.861-1.124,19.246c-4.194,35.957-20.565,70.032-46.099,95.946c-5.889,5.978-15.505,6.047-21.48,0.158
	c-5.977-5.887-6.045-15.505-0.158-21.48c20.809-21.119,34.15-48.872,37.563-78.148c0.609-5.222,0.919-10.512,0.919-15.724
	c0-44.946-22.389-86.637-59.892-111.526c-21.916-14.539-47.457-22.226-73.86-22.226c-17.057,0-33.676,3.165-49.389,9.408
	c-51.248,20.367-84.363,69.176-84.363,124.342c0,31.804,11.349,62.622,31.956,86.769c25.325,29.676,62.19,46.796,101.146,46.968
	c0.202,0.002,0.404,0.006,0.605,0.015c8.348,0.049,15.165,6.831,15.165,15.189C271.121,413.329,264.387,420.13,256,420.13z"/>
<path style="fill:#CFF09E;" d="M322.621,179.646c-29.505,17.193-29.787,62.187-45.043,80.218
	c-15.256,18.048-78.742-26.519-76.834-54.009c1.891-27.491-7.002-24.043-12.083-28.344c-3.234-2.731,13.974-37.696,12.343-58.445
	c17.01-6.758,35.576-12.005,54.997-12.005c30.404,0,58.688,10.649,82.258,26.285C339.646,151.911,337.344,171.072,322.621,179.646z"
	/>
<path style="fill:#507C5C;" d="M266.976,279.233c-21.36,0-47.574-17.669-62.892-34.086c-9.041-9.691-19.588-24.555-18.491-40.344
	c0.451-6.554,0.125-10.023-0.166-11.662c-1.738-0.799-4.151-1.987-6.58-4.042c-9.115-7.693-5.869-17.7-0.957-32.846
	c3.462-10.676,8.696-26.813,7.973-35.995c-0.524-6.642,3.342-12.848,9.533-15.309c22.153-8.801,41.978-13.078,60.604-13.078
	c30.89,0,62.239,9.966,90.656,28.818c3.908,2.593,6.401,6.847,6.749,11.524c2.24,29.938-5.546,50.312-23.139,60.559
	c-13.237,7.713-19.134,25.314-24.837,42.335c-4.381,13.073-8.517,25.424-16.252,34.569
	C285.491,274.033,278.644,279.233,266.976,279.233z M205.419,169.864c8.784,6.966,11.779,18.13,10.477,37.034
	c-0.144,2.06,1.847,8.36,10.397,17.524c13.397,14.36,32.119,24.378,40.61,24.433c3.583-5.084,6.7-14.383,9.72-23.399
	c6.786-20.255,15.23-45.462,38.349-58.934c6.674-3.887,8.45-14.416,8.436-24.585c-21.617-12.903-44.779-19.69-67.409-19.69
	c-12.414,0-25.364,2.406-40.18,7.509c-1.414,12.364-5.688,25.547-9.034,35.866C206.357,166.942,205.879,168.415,205.419,169.864z"/>
<path style="fill:#CFF09E;" d="M256,405.376c-45.095-0.199-86.178-22.433-113.349-54.272c18.323-22.533,56.807-13.123,68.087-36.08
	C230.043,275.728,291.536,352.407,256,405.376z"/>
<path style="fill:#507C5C;" d="M256,420.565c-0.023,0-0.044,0-0.067,0c-47.188-0.208-92.688-21.932-124.836-59.6
	c-4.759-5.576-4.856-13.755-0.231-19.442c12.092-14.872,29.587-19.24,43.641-22.749c12.341-3.082,20.034-5.234,22.595-10.447
	c6.024-12.259,16.369-19.29,28.388-19.29c16.305,0,33.553,13.347,45.01,34.833c12.519,23.473,18.596,59.435-1.89,89.968
	C265.791,418.043,261.061,420.565,256,420.565z M165.572,353.096c22.85,21.224,52.099,34.428,81.746,36.73
	c7.98-17.815,3.755-37.835-3.62-51.663c-7.187-13.479-15.312-18.301-17.875-18.717c-0.314,0.337-0.854,1.048-1.455,2.275
	c-8.911,18.139-27.538,22.79-42.502,26.526C176.072,349.694,170.443,351.099,165.572,353.096z"/>
<path style="fill:#CFF09E;" d="M402.392,273.483c-3.935,33.761-17.461,64.058-40.116,87.049
	c-25.966-5.339-31.127-28.732-45.254-44.913c-33.167-37.992,27.322-46.53,61.022-46.53
	C387.29,269.09,394.537,270.661,402.392,273.483z"/>
<g>
	<path style="fill:#507C5C;" d="M362.277,375.72c-1.018,0-2.043-0.102-3.061-0.311c-24.65-5.07-35.442-22.293-44.115-36.133
		c-3.155-5.032-6.135-9.788-9.522-13.667c-16.213-18.572-14.776-33.118-10.716-42.053c11.727-25.803,57.149-29.657,83.182-29.657
		c10.345,0,19.161,1.581,29.48,5.287c6.647,2.386,10.771,9.039,9.953,16.053c-4.402,37.772-19.75,70.951-44.384,95.951
		C370.211,374.119,366.3,375.72,362.277,375.72z M322.592,295.993c0.067,0.614,0.664,3.67,5.872,9.637
		c4.968,5.69,8.735,11.702,12.378,17.516c6.003,9.578,10.367,16.11,16.94,19.775c13.568-16.148,22.902-35.954,27.447-58.205
		c-2.303-0.301-4.645-0.437-7.184-0.437C345.341,284.278,325.065,291.716,322.592,295.993z"/>
	<path style="fill:#507C5C;" d="M256,512c-68.38,0-132.668-26.63-181.019-74.981S0,324.38,0,256S26.63,123.332,74.981,74.981
		S187.62,0,256,0s132.668,26.63,181.019,74.981c5.931,5.931,5.931,15.549,0,21.482c-5.933,5.931-15.548,5.928-21.482,0
		C372.924,53.847,316.266,30.378,256,30.378S139.076,53.847,96.463,96.463C53.847,139.076,30.378,195.734,30.378,256
		s23.469,116.924,66.085,159.537c42.615,42.616,99.271,66.085,159.537,66.085s116.924-23.469,159.537-66.085
		c42.616-42.615,66.085-99.271,66.085-159.537c0-8.387,6.802-15.189,15.189-15.189S512,247.613,512,256
		c0,68.381-26.628,132.668-74.981,181.019C388.668,485.37,324.38,512,256,512z"/>
</g>
<circle style="fill:#CFF09E;" cx="85.727" cy="85.727" r="37.774"/>
<path style="fill:#507C5C;" d="M85.723,138.686c-14.147,0-27.448-5.509-37.452-15.513c-20.651-20.651-20.651-54.252,0-74.902
	c10.004-10.004,23.305-15.513,37.452-15.513c14.146,0,27.447,5.509,37.45,15.513c20.651,20.651,20.651,54.252,0,74.902
	C113.169,133.176,99.868,138.686,85.723,138.686z M85.723,63.135c-6.035,0-11.705,2.35-15.971,6.615
	c-8.807,8.807-8.807,23.133,0,31.94c4.267,4.267,9.937,6.615,15.971,6.615c6.033,0,11.703-2.35,15.97-6.615
	c8.807-8.807,8.807-23.133,0-31.94C97.426,65.485,91.754,63.135,85.723,63.135z"/>
<circle style="fill:#CFF09E;" cx="426.282" cy="426.282" r="37.774"/>
<path style="fill:#507C5C;" d="M426.279,479.243c-14.147,0-27.448-5.509-37.452-15.513c-20.651-20.651-20.651-54.252,0-74.902
	c10.004-10.004,23.305-15.513,37.452-15.513c14.146,0,27.447,5.509,37.45,15.513c20.651,20.651,20.651,54.252,0,74.902
	C453.727,473.734,440.426,479.243,426.279,479.243z M426.279,403.693c-6.035,0-11.705,2.35-15.971,6.615
	c-8.807,8.807-8.807,23.133,0,31.94c4.267,4.267,9.937,6.615,15.971,6.615c6.033,0,11.703-2.35,15.97-6.615
	c8.807-8.807,8.807-23.133,0-31.94C437.984,406.042,432.312,403.693,426.279,403.693z"/>
<circle style="fill:#CFF09E;" cx="426.282" cy="85.727" r="37.774"/>
<path style="fill:#507C5C;" d="M426.279,138.686c-14.147,0-27.448-5.509-37.452-15.513c-20.651-20.651-20.651-54.252,0-74.902
	c10.004-10.004,23.305-15.513,37.452-15.513c14.146,0,27.447,5.509,37.45,15.513c20.651,20.651,20.651,54.252,0,74.902
	C453.727,133.176,440.426,138.686,426.279,138.686z M426.279,63.135c-6.035,0-11.705,2.35-15.971,6.615
	c-8.807,8.807-8.807,23.133,0,31.94c4.267,4.267,9.937,6.615,15.971,6.615c6.033,0,11.703-2.35,15.97-6.615
	c8.807-8.807,8.807-23.133,0-31.94C437.984,65.485,432.312,63.135,426.279,63.135z"/>
<circle style="fill:#CFF09E;" cx="85.727" cy="426.282" r="37.774"/>
<path style="fill:#507C5C;" d="M85.723,479.243c-14.147,0-27.448-5.509-37.452-15.513c-20.651-20.651-20.651-54.252,0-74.902
	c10.004-10.004,23.305-15.513,37.452-15.513c14.146,0,27.447,5.509,37.45,15.513c20.651,20.651,20.651,54.252,0,74.902
	C113.169,473.734,99.868,479.243,85.723,479.243z M85.723,403.693c-6.035,0-11.705,2.35-15.971,6.615
	c-8.807,8.807-8.807,23.133,0,31.94c4.267,4.267,9.937,6.615,15.971,6.615c6.033,0,11.703-2.35,15.97-6.615
	c8.807-8.807,8.807-23.133,0-31.94C97.426,406.042,91.754,403.693,85.723,403.693z"/>
<g>
</g>
<g>
</g>
<g>
</g>
<g>
</g>
<g>
</g>
<g>
</g>
<g>
</g>
<g>
</g>
<g>
</g>
<g>
</g>
<g>
</g>
<g>
</g>
<g>
</g>
<g>
</g>
<g>
</g>
</svg>
